<?xml version="1.0" encoding="UTF-8" standalone="no"?>
<!-- Created with Inkscape (http://www.inkscape.org/) -->

<svg
   xmlns:dc="http://purl.org/dc/elements/1.1/"
   xmlns:cc="http://creativecommons.org/ns#"
   xmlns:rdf="http://www.w3.org/1999/02/22-rdf-syntax-ns#"
   xmlns:svg="http://www.w3.org/2000/svg"
   xmlns="http://www.w3.org/2000/svg"
   xmlns:xlink="http://www.w3.org/1999/xlink"
   xmlns:sodipodi="http://sodipodi.sourceforge.net/DTD/sodipodi-0.dtd"
   xmlns:inkscape="http://www.inkscape.org/namespaces/inkscape"
   width="24"
   height="24"
   viewBox="0 0 6.3500002 6.3500002"
   version="1.1"
   id="svg8"
   sodipodi:docname="score.svg"
   inkscape:version="0.92.3 (2405546, 2018-03-11)"
   style="enable-background:new">
  <defs
     id="defs2">
    <linearGradient
       id="linearGradient1112"
       inkscape:collect="always">
      <stop
         id="stop1108"
         offset="0"
         style="stop-color:#a0a0a0;stop-opacity:1" />
      <stop
         id="stop1110"
         offset="1"
         style="stop-color:#d2d2d2;stop-opacity:0.97647059" />
    </linearGradient>
    <linearGradient
       gradientTransform="translate(-5.7646469e-8,0.26460889)"
       inkscape:collect="always"
       xlink:href="#linearGradient1112"
       id="linearGradient1083-9"
       x1="4.2333336"
       y1="294.88333"
       x2="4.2333336"
       y2="290.64999"
       gradientUnits="userSpaceOnUse" />
  </defs>
  <sodipodi:namedview
     id="base"
     pagecolor="#494949"
     bordercolor="#666666"
     borderopacity="1.0"
     inkscape:pageopacity="0"
     inkscape:pageshadow="2"
     inkscape:zoom="36.291667"
     inkscape:cx="12"
     inkscape:cy="12"
     inkscape:document-units="pt"
     inkscape:current-layer="layer1"
     showgrid="true"
     showguides="true"
     units="px"
     inkscape:pagecheckerboard="false"
     showborder="true"
     inkscape:showpageshadow="false"
     inkscape:window-width="1920"
     inkscape:window-height="1052"
     inkscape:window-x="1920"
     inkscape:window-y="0"
     inkscape:window-maximized="1">
    <inkscape:grid
       type="xygrid"
       id="grid815"
       originx="0.52916668"
       color="#00ff00"
       opacity="0.05882353"
       spacingx="0.26458334"
       originy="0.52916668"
       visible="true"
       empspacing="5"
       empcolor="#00ff00"
       empopacity="0.15686275" />
  </sodipodi:namedview>
  <metadata
     id="metadata5">
    <rdf:RDF>
      <cc:Work
         rdf:about="">
        <dc:format>image/svg+xml</dc:format>
        <dc:type
           rdf:resource="http://purl.org/dc/dcmitype/StillImage" />
        <dc:title></dc:title>
      </cc:Work>
    </rdf:RDF>
  </metadata>
  <g
     inkscape:label="Layer 1"
     inkscape:groupmode="layer"
     id="layer1"
     transform="translate(0,-290.65)">
    <circle
       style="fill:#ffffff;fill-opacity:1;stroke:#fffffa;stroke-width:0;stroke-linecap:round;stroke-linejoin:round;stroke-miterlimit:4;stroke-dasharray:none;stroke-opacity:1;enable-background:new"
       id="path837"
       cx="5.0000019"
       cy="5.0000019"
       r="5"
       transform="matrix(0.26458334,0,0,0.26458334,3.44262,290.89998)" />
    <g
       aria-label="B"
       style="font-style:normal;font-weight:normal;font-size:10.58333397px;line-height:1.25;font-family:sans-serif;letter-spacing:0px;word-spacing:0px;fill:#000000;fill-opacity:1;stroke:none;stroke-width:0.26458335"
       id="text841">
      <path
         d="m 4.4671352,292.17363 v 0.65957 h 0.3906739 q 0.1965427,0 0.2905938,-0.0808 0.095257,-0.082 0.095257,-0.2496 0,-0.16881 -0.095257,-0.24839 -0.094051,-0.0808 -0.2905938,-0.0808 z m 0,-0.74035 v 0.5426 h 0.3605293 q 0.1784559,0 0.2652724,-0.0663 0.088022,-0.0675 0.088022,-0.20499 0,-0.13625 -0.088022,-0.20378 -0.086816,-0.0675 -0.2652724,-0.0675 z M 4.223567,291.23312 h 0.6221842 q 0.278536,0 0.429259,0.11576 0.1507229,0.11575 0.1507229,0.32918 0,0.16519 -0.07717,0.26286 -0.07717,0.0977 -0.2266872,0.12178 0.1796617,0.0386 0.2785359,0.16158 0.1000801,0.12178 0.1000801,0.30506 0,0.24115 -0.1639866,0.37259 -0.1639865,0.13143 -0.4666382,0.13143 H 4.223567 Z"
         style="font-style:normal;font-variant:normal;font-weight:normal;font-stretch:normal;font-size:2.46944451px;font-family:sans-serif;-inkscape-font-specification:'sans-serif, Normal';font-variant-ligatures:normal;font-variant-caps:normal;font-variant-numeric:normal;font-feature-settings:normal;text-align:start;writing-mode:lr-tb;text-anchor:start;fill:#000000;stroke-width:0.26458335"
         id="path915"
         inkscape:connector-curvature="0" />
    </g>
    <g
       aria-label="A"
       transform="matrix(0.26458334,0,0,0.26458334,1.112164,291.31626)"
       style="font-style:normal;font-weight:normal;font-size:40px;line-height:1.25;font-family:sans-serif;letter-spacing:0px;word-spacing:0px;fill:#e6e6e6;fill-opacity:1;stroke:none;stroke-width:1;enable-background:new"
       id="text841-3">
      <path
         d="M 2.2740884,0.90690092 1.0253906,4.2929685 h 2.501953 z M 1.7545572,-8.6147338e-8 H 2.798177 L 5.3912758,6.8040361 H 4.4342446 L 3.814453,5.0585935 H 0.74739578 L 0.12760413,6.8040361 h -0.97070309 z"
         style="font-style:normal;font-variant:normal;font-weight:normal;font-stretch:normal;font-size:9.33333302px;font-family:sans-serif;-inkscape-font-specification:'sans-serif, Normal';font-variant-ligatures:normal;font-variant-caps:normal;font-variant-numeric:normal;font-feature-settings:normal;text-align:start;writing-mode:lr-tb;text-anchor:start;fill:#e6e6e6;stroke-width:1"
         id="path912"
         inkscape:connector-curvature="0" />
    </g>
    <g
       aria-label="C"
       transform="matrix(0.26458334,0,0,0.26458334,0.76484802,294.19519)"
       style="font-style:normal;font-weight:normal;font-size:40px;line-height:1.25;font-family:sans-serif;letter-spacing:0px;word-spacing:0px;fill:#e6e6e6;fill-opacity:1;stroke:none;stroke-width:1;enable-background:new"
       id="text841-3-1">
      <path
         d="M 6.5615883,1.2044921 V 2.1751952 Q 6.0967445,1.7422525 5.5680987,1.5280598 5.0440102,1.3138671 4.4515623,1.3138671 q -1.1666666,0 -1.7864583,0.7154948 -0.6197916,0.7109375 -0.6197916,2.0598958 0,1.344401 0.6197916,2.0598957 0.6197917,0.7109375 1.7864583,0.7109375 0.5924479,0 1.1165364,-0.2141927 Q 6.0967445,6.4317055 6.5615883,5.9987628 V 6.9603513 Q 6.0785154,7.2884763 5.5361977,7.4525388 4.9984373,7.6166013 4.3968748,7.6166013 2.851953,7.6166013 1.9632811,6.673242 1.0746093,5.7253253 1.0746093,4.0892577 q 0,-1.640625 0.8886718,-2.5839843 0.8886719,-0.94791665 2.4335937,-0.94791665 0.6106771,0 1.1484375,0.1640625 0.5423177,0.1595052 1.016276,0.48307285 z"
         style="font-style:normal;font-variant:normal;font-weight:normal;font-stretch:normal;font-size:9.33333302px;font-family:sans-serif;-inkscape-font-specification:'sans-serif, Normal';font-variant-ligatures:normal;font-variant-caps:normal;font-variant-numeric:normal;font-feature-settings:normal;text-align:start;writing-mode:lr-tb;text-anchor:start;fill:#e6e6e6;stroke-width:1"
         id="path918"
         inkscape:connector-curvature="0" />
    </g>
    <g
       aria-label="D"
       transform="matrix(0.26458334,0,0,0.26458334,3.6145109,294.19854)"
       style="font-style:normal;font-weight:normal;font-size:40px;line-height:1.25;font-family:sans-serif;letter-spacing:0px;word-spacing:0px;fill:#e6e6e6;fill-opacity:1;stroke:none;stroke-width:1;enable-background:new"
       id="text841-3-4">
      <path
         d="m 2.3871093,1.436914 v 5.2910155 h 1.1119791 q 1.4082031,0 2.0598957,-0.6380209 0.65625,-0.6380208 0.65625,-2.0143228 0,-1.3671875 -0.65625,-2.000651 Q 4.9072915,1.436914 3.4990884,1.436914 Z M 1.4665364,0.68040362 h 1.8912759 q 1.9778646,0 2.9029947,0.82486978 0.9251302,0.8203125 0.9251302,2.5703124 0,1.7591145 -0.9296874,2.5839843 Q 5.3265623,7.4844398 3.3578123,7.4844398 H 1.4665364 Z"
         style="font-style:normal;font-variant:normal;font-weight:normal;font-stretch:normal;font-size:9.33333302px;font-family:sans-serif;-inkscape-font-specification:'sans-serif, Normal';font-variant-ligatures:normal;font-variant-caps:normal;font-variant-numeric:normal;font-feature-settings:normal;text-align:start;writing-mode:lr-tb;text-anchor:start;fill:#e6e6e6;stroke-width:1"
         id="path921"
         inkscape:connector-curvature="0" />
    </g>
  </g>
</svg>
