<?xml version="1.0" encoding="UTF-8" standalone="no"?>
<!-- Generator: Adobe Illustrator 20.1.0, SVG Export Plug-In . SVG Version: 6.00 Build 0)  -->

<svg
   xmlns:dc="http://purl.org/dc/elements/1.1/"
   xmlns:cc="http://creativecommons.org/ns#"
   xmlns:rdf="http://www.w3.org/1999/02/22-rdf-syntax-ns#"
   xmlns:svg="http://www.w3.org/2000/svg"
   xmlns="http://www.w3.org/2000/svg"
   xmlns:sodipodi="http://sodipodi.sourceforge.net/DTD/sodipodi-0.dtd"
   xmlns:inkscape="http://www.inkscape.org/namespaces/inkscape"
   version="1.1"
   id="Ebene_1"
   x="0px"
   y="0px"
   viewBox="0 0 24 24"
   xml:space="preserve"
   sodipodi:docname="translate.svg"
   width="24"
   height="24"
   inkscape:version="0.92.3 (2405546, 2018-03-11)"><metadata
   id="metadata21"><rdf:RDF><cc:Work
       rdf:about=""><dc:format>image/svg+xml</dc:format><dc:type
         rdf:resource="http://purl.org/dc/dcmitype/StillImage" /><dc:title></dc:title></cc:Work></rdf:RDF></metadata><defs
   id="defs19" /><sodipodi:namedview
   pagecolor="#ffffff"
   bordercolor="#666666"
   borderopacity="1"
   objecttolerance="10"
   gridtolerance="10"
   guidetolerance="10"
   inkscape:pageopacity="0"
   inkscape:pageshadow="2"
   inkscape:window-width="1859"
   inkscape:window-height="1025"
   id="namedview17"
   showgrid="true"
   inkscape:zoom="35.166667"
   inkscape:cx="12"
   inkscape:cy="12"
   inkscape:window-x="61"
   inkscape:window-y="27"
   inkscape:window-maximized="1"
   inkscape:current-layer="Ebene_1"><inkscape:grid
     type="xygrid"
     id="grid831" /></sodipodi:namedview>
<style
   type="text/css"
   id="style2">
	.st0{fill:#D9D9D9;}
	.st1{fill:#4352B8;}
	.st2{fill:#617D8B;}
	.st3{fill:#4F8BF5;}
	.st4{fill:#FFFFFF;}
	.st5{opacity:0.2;fill:#FFFFFF;}
</style>
<path
   class="st0"
   d="m 20.696218,21.975198 c 0.730834,0 1.329517,-0.588672 1.329517,-1.309494 V 7.3084572 c 0,-0.7208229 -0.598683,-1.3094945 -1.329517,-1.3094945 H 7.719412 l 5.20794,15.9762353 z"
   id="path4"
   inkscape:connector-curvature="0"
   style="fill:#e6e6e6;stroke-width:0.02002285" />
<polygon
   class="st1"
   points="716.3,810 546.8,998.5 485.1,810 "
   id="polygon6"
   style="fill:#b3b3b3"
   transform="matrix(0.02002285,0,0,0.02002285,2.002888,1.9823787)" />
<path
   class="st2"
   d="M 20.764296,11.533281 V 10.75239 H 17 V 9.490948 h -1.221394 v 1.261442 h -2.402742 v 0.780891 h 4.781457 c -0.256293,0.901029 -0.820937,1.752 -1.371566,2.412754 -0.977114,-1.155319 -0.98112,-1.531749 -0.98112,-1.531749 h -1.015158 c 0,0 0.04204,0.562643 1.411611,2.168475 -0.444507,0.454519 -0.782893,0.724828 -0.782893,0.724828 l 0.312356,0.975112 c 0,0 0.470537,-0.404461 1.061212,-1.031176 0.590673,0.640731 1.353544,1.41161 2.340671,2.330659 l 0.640731,-0.640731 c -1.057207,-0.959094 -1.832091,-1.719963 -2.40074,-2.33066 0.76287,-0.90303 1.537755,-2.038326 1.701943,-3.079514 h 1.689928 z"
   id="path8"
   inkscape:connector-curvature="0"
   style="fill:#4d4d4d;stroke-width:0.02002285" />
<path
   class="st3"
   d="m 3.3704487,1.9863834 c -0.730834,0 -1.3295173,0.5986831 -1.3295173,1.3315196 v 13.555473 c 0,0.730834 0.5986833,1.329517 1.3295173,1.329517 H 16.347255 L 11.139312,1.9863834 Z"
   id="path10"
   inkscape:connector-curvature="0"
   style="fill:#999999;stroke-width:0.02002285" />
<path
   class="st4"
   d="M 10.490571,9.5410049 H 10.144176 9.0068813 7.6493321 v 1.1773461 h 1.6358667 c -0.1521737,0.748855 -0.7909025,1.177344 -1.6358667,1.177344 -0.9971381,0 -1.8020568,-0.804919 -1.8020568,-1.802059 0,-0.9971383 0.8049187,-1.802057 1.8020568,-1.802057 0.4304912,0 0.816932,0.1521737 1.1232817,0.4024595 L 9.6596261,7.8070262 C 9.1190092,7.3364891 8.4262185,7.0441554 7.6493321,7.0441554 c -1.6919311,0 -3.0494804,1.3575493 -3.0494804,3.0494806 0,1.691933 1.3595516,3.051484 3.0494804,3.051484 1.525741,0 2.9113189,-1.109265 2.9113189,-3.049482 0,-0.1802057 -0.02803,-0.3744279 -0.07008,-0.5546331 z"
   id="path12"
   inkscape:connector-curvature="0"
   style="fill:#ffffff;stroke-width:0.02002285" />
<path
   class="st5"
   d="m 12.739137,5.9989627 h 7.957081 c 0.730834,0 1.329517,0.5886716 1.329517,1.3094945 v 8.0131478 z"
   id="path14"
   inkscape:connector-curvature="0"
   style="opacity:0.2;fill:#ffffff;stroke-width:0.02002285;fill-opacity:1" />
</svg>