<?xml version="1.0" encoding="UTF-8" standalone="no"?>
<!-- Created with Inkscape (http://www.inkscape.org/) -->

<svg
   xmlns:dc="http://purl.org/dc/elements/1.1/"
   xmlns:cc="http://creativecommons.org/ns#"
   xmlns:rdf="http://www.w3.org/1999/02/22-rdf-syntax-ns#"
   xmlns:svg="http://www.w3.org/2000/svg"
   xmlns="http://www.w3.org/2000/svg"
   xmlns:sodipodi="http://sodipodi.sourceforge.net/DTD/sodipodi-0.dtd"
   xmlns:inkscape="http://www.inkscape.org/namespaces/inkscape"
   width="20cm"
   height="20cm"
   viewBox="0 0 708.66142 708.6614"
   id="svg4214"
   version="1.1"
   inkscape:version="0.91 r13725"
   sodipodi:docname="RapidLogo.svg">
  <defs
     id="defs4216">
    <clipPath
       clipPathUnits="userSpaceOnUse"
       id="clipPath4256">
      <rect
         style="fill:#000000;fill-opacity:0.21960784"
         id="rect4258"
         width="170.71428"
         height="60"
         x="492.57141"
         y="610.93359" />
    </clipPath>
  </defs>
  <sodipodi:namedview
     id="base"
     pagecolor="#ffffff"
     bordercolor="#666666"
     borderopacity="1.0"
     inkscape:pageopacity="0.0"
     inkscape:pageshadow="2"
     inkscape:zoom="0.98994949"
     inkscape:cx="251.52504"
     inkscape:cy="452.71225"
     inkscape:document-units="px"
     inkscape:current-layer="layer1"
     showgrid="false"
     units="cm"
     inkscape:window-width="1280"
     inkscape:window-height="1000"
     inkscape:window-x="0"
     inkscape:window-y="24"
     inkscape:window-maximized="1" />
  <metadata
     id="metadata4219">
    <rdf:RDF>
      <cc:Work
         rdf:about="">
        <dc:format>image/svg+xml</dc:format>
        <dc:type
           rdf:resource="http://purl.org/dc/dcmitype/StillImage" />
        <dc:title />
      </cc:Work>
    </rdf:RDF>
  </metadata>
  <g
     inkscape:label="Layer 1"
     inkscape:groupmode="layer"
     id="layer1"
     transform="translate(0,-343.70084)">
    <a
       id="a3339">
      <g
         transform="matrix(3.605453,0,0,3.605453,-1125.9617,-1440.1945)"
         id="g4260"
         style="display:inline">
        <path
           style="display:inline;fill:#020000;fill-opacity:1;stroke:#000000;stroke-width:0;stroke-linecap:round;stroke-linejoin:miter;stroke-miterlimit:4;stroke-dasharray:none;stroke-opacity:1"
           d="m 444.13755,528.11264 c -16.61541,0.5855 -48.76128,-2.65507 -65.47958,10.6366 -10.2074,7.70198 -16.79107,13.18108 -26.39708,15.15591 -5.61397,1.15414 -20.38648,1.31212 -26.60035,0.11671 13.86202,15.2061 35.10718,23.33772 55.39819,15.19474 8.01258,-3.8601 12.2545,-7.21026 18.63574,-6.86746 -3.21353,13.56764 0.49258,-1.7274 -2.83513,11.93319 -17.4617,1.34116 -29.95022,16.0302 -44.89842,23.15625 -7.57684,3.612 -23.33576,4.35628 -30.14394,3.69082 -1.52113,-0.14868 7.4644,6.4105 11.28826,8.63368 14.89676,8.66092 31.93346,8.90431 47.04877,1.39147 4.74872,-2.36028 10.22746,-3.16844 10.22746,-3.16844 -2.9384,14.19078 -6.26793,30.51235 -9.20953,44.70248 l 41.68739,0 c 3.7982,-20.35661 6.58621,-37.02771 8.26715,-43.19812 4.4615,-0.24868 8.02941,2.99522 10.47175,7.33725 5.8744,11.39174 9.8497,23.78272 14.2611,35.86087 l 44.93764,0 c -7.17654,-15.9013 -12.75584,-32.72151 -21.46884,-47.71876 22.03354,-8.80776 31.88163,-38.59677 19.2188,-58.90625 -6.52698,-10.4684 -16.69904,-14.62518 -26.57344,-16.46539 -6.67854,-1.24462 -12.01632,-1.33627 -27.83594,-1.48555 z m -4.5917,37.86689 c 21.19895,-0.0379 23.6948,-0.69884 24.11898,3.02748 1.01312,8.9 -21.0549,6.44547 -26.40245,6.55226 -2.4172,11.92583 4.88791,-19.01821 2.28347,-9.57974 z"
           id="path3058-7-9-4-5-2-4-3-9-4-8-8-5"
           inkscape:connector-curvature="0"
           sodipodi:nodetypes="ccsccccccsscccccccccsccscc"
           inkscape:export-xdpi="28.944717"
           inkscape:export-ydpi="28.944717"
           inkscape:export-filename="C:\Documents and Settings\Gareth\Desktop\Rapid Mobile\styles and images\RapidLogo_60x40.png" />
        <path
           style="display:inline;fill:#ff0004;fill-opacity:1;stroke:#fff8f8;stroke-width:5.01999998;stroke-linecap:round;stroke-linejoin:miter;stroke-miterlimit:7;stroke-dasharray:none;stroke-opacity:1"
           d="m 443.51593,536.12281 c -13.81544,0.0709 -28.02689,-0.2672 -41.46896,1.93727 -9.29143,1.63918 -11.79341,1.87016 -27.06201,12.92436 -8.49831,6.15263 -18.0882,10.51773 -28.01489,10.622 13.57102,8.05605 28.53309,2.31622 38.11822,-2.68123 7.84046,-4.08782 12.7723,-5.25479 23.36515,-4.25115 -1.86956,9.06534 -3.72453,18.13412 -5.64183,27.18938 -14.18708,-0.92534 -26.6273,6.79608 -36.78375,15.90562 -6.3494,5.03242 -11.01198,7.79124 -22.12125,9.02063 10.72591,5.35173 22.90471,2.01692 33.08625,-3.09188 6.95446,-2.94039 14.50542,-4.52876 22.08933,-3.92062 -3.13477,15.33828 -6.33767,30.66269 -9.49875,45.99563 l 25.81875,0 c 3.02348,-14.47223 6.04175,-28.94555 9.08441,-43.41376 8.03883,-0.96165 16.11666,-0.6794 22.4399,8.57438 6.23036,10.97178 10.18613,22.99671 14.50318,34.83938 9.17704,-0.0647 18.7119,0.12866 27.6675,-0.0956 -6.51485,-15.60963 -12.17738,-31.50234 -22.44,-45.13501 17.05093,-2.11371 30.82765,-17.94712 30.06317,-35.44465 -0.59512,-13.62105 -8.6793,-25.09633 -24.82507,-27.75097 -9.34422,-1.12962 -18.91885,-1.34403 -28.37935,-1.22381 z m 15.36375,21.96188 c 6.06279,0.0418 14.0539,4.17725 12.97499,12.59994 -1.41249,11.02682 -14.19833,11.69267 -24.35524,11.8828 -6.7662,-0.097 -12.7707,-0.2168 -18.80543,-0.19399 1.67984,-8.05131 3.30572,-16.11395 5.00443,-24.16125 8.39235,-0.0662 16.79008,-0.18537 25.18125,-0.1275 z"
           id="path3058-7-9-4-5-2-7-0-4-8-09-6-9-3"
           inkscape:connector-curvature="0"
           inkscape:export-filename="C:\Documents and Settings\Gareth\Desktop\Rapid Mobile\styles and images\RapidLogo_60x40.png"
           inkscape:export-xdpi="28.944717"
           inkscape:export-ydpi="28.944717"
           sodipodi:nodetypes="ccscscccccccccccccscccsscccs" />
        <path
           style="display:inline;fill:#000000;fill-opacity:0.21568627;stroke:#000000;stroke-width:0;stroke-linecap:round;stroke-linejoin:miter;stroke-miterlimit:4;stroke-dasharray:none;stroke-opacity:1"
           d="m 573.021,515.90796 c -19.7355,1.25769 -42.30649,-3.79351 -59.02479,9.49816 -10.2074,7.70198 -17.3973,14.28311 -27.1315,15.47505 -5.4004,1.91948 -19.59489,0.15246 -25.38849,0.84822 13.5118,15.6964 36.57809,23.33772 55.88849,13.30357 4.7223,-2.02286 10.8851,-5.21194 15.3437,-4.90625 -0.9021,3.55144 -0.2779,7.86855 -2.625,10.8125 -17.4617,1.34116 -29.6879,15.44672 -44.3437,23.15625 -7.8347,3.01206 -23.85826,4.19062 -30.69866,4.24554 -6.665,-5.12048 7.14236,6.53754 11.28826,8.07896 14.505,9.30214 34.0975,9.74584 49.0299,1.0943 2.298,-0.3756 8.8843,-4.65192 7.8501,-0.74156 -2.9384,14.19078 -5.8717,28.38264 -8.8133,42.57277 l 40.02324,0 c 3.3079,-14.19279 5.6947,-29.40037 9.4063,-43.00001 4.4615,-0.24868 10.23545,2.72707 10.99675,7.13914 5.8744,11.39174 9.8497,23.78272 14.2611,35.86087 l 44.93764,0 c -7.17654,-15.9013 -12.75584,-32.72151 -21.46884,-47.71876 22.03354,-8.80776 32.13704,-38.75827 19.2188,-58.90625 -6.2686,-10.62514 -18.5947,-16.6132 -30.8405,-16.14419 -9.2774,-0.81558 -18.6048,-0.81038 -27.9095,-0.66831 z m 1.5,37.21875 c 6.9101,1.7832 15.1327,-1.38315 21.5624,1.03125 -2.8572,7.95091 -13.4552,6.93578 -20.3437,6.9375 -4.332,1.40707 -2.6447,-2.40119 -2.5,-5.03125 0.1647,-0.89472 0.2315,-2.77437 1.2813,-2.9375 z"
           id="path3058-7-9-4-5-2-4-3-9-4-8-8"
           inkscape:connector-curvature="0"
           sodipodi:nodetypes="ccccccccccccccccccccccccccc"
           inkscape:export-xdpi="28.944717"
           inkscape:export-ydpi="28.944717"
           inkscape:export-filename="C:\Documents and Settings\Gareth\Desktop\Rapid Mobile\styles and images\RapidLogo_60x40.png"
           clip-path="url(#clipPath4256)"
           transform="translate(-133.25893,13.375)" />
      </g>
    </a>
  </g>
</svg>
