<?xml version="1.0" encoding="UTF-8" standalone="no"?>
<!-- Created with Inkscape (http://www.inkscape.org/) -->

<svg
   xmlns:dc="http://purl.org/dc/elements/1.1/"
   xmlns:cc="http://creativecommons.org/ns#"
   xmlns:rdf="http://www.w3.org/1999/02/22-rdf-syntax-ns#"
   xmlns:svg="http://www.w3.org/2000/svg"
   xmlns="http://www.w3.org/2000/svg"
   xmlns:sodipodi="http://sodipodi.sourceforge.net/DTD/sodipodi-0.dtd"
   xmlns:inkscape="http://www.inkscape.org/namespaces/inkscape"
   width="8.5827255mm"
   height="8.5827255mm"
   viewBox="0 0 8.5827255 8.5827255"
   version="1.1"
   id="svg1021"
   inkscape:version="0.92.5 (2060ec1f9f, 2020-04-08)"
   sodipodi:docname="RapidLogo-small.svg"
   inkscape:export-filename="/home/gareth/Desktop/RapidLogo_72x72.png"
   inkscape:export-xdpi="213.08"
   inkscape:export-ydpi="213.08">
  <defs
     id="defs1015">
    <clipPath
       id="clipPath38-9-3"
       clipPathUnits="userSpaceOnUse">
      <path
         inkscape:connector-curvature="0"
         id="path36-9-67"
         d="m 61.633,38.59 h 78.641 V 66.26 H 61.633 Z" />
    </clipPath>
    <clipPath
       id="clipPath46-5-5"
       clipPathUnits="userSpaceOnUse">
      <path
         inkscape:connector-curvature="0"
         id="path44-2-3"
         d="M 43.5186,110.044 H 128.385 V 53.165 H 43.5186 Z" />
    </clipPath>
  </defs>
  <sodipodi:namedview
     id="base"
     pagecolor="#ffffff"
     bordercolor="#666666"
     borderopacity="1.0"
     inkscape:pageopacity="0.0"
     inkscape:pageshadow="2"
     inkscape:zoom="11.2"
     inkscape:cx="-3.3115502"
     inkscape:cy="14.980466"
     inkscape:document-units="mm"
     inkscape:current-layer="layer1"
     showgrid="false"
     fit-margin-top="0"
     fit-margin-left="0"
     fit-margin-right="0"
     fit-margin-bottom="0"
     inkscape:window-width="1222"
     inkscape:window-height="970"
     inkscape:window-x="601"
     inkscape:window-y="69"
     inkscape:window-maximized="0" />
  <metadata
     id="metadata1018">
    <rdf:RDF>
      <cc:Work
         rdf:about="">
        <dc:format>image/svg+xml</dc:format>
        <dc:type
           rdf:resource="http://purl.org/dc/dcmitype/StillImage" />
        <dc:title></dc:title>
      </cc:Work>
    </rdf:RDF>
  </metadata>
  <g
     inkscape:label="Layer 1"
     inkscape:groupmode="layer"
     id="layer1"
     transform="translate(-12.397454,-27.228678)">
    <rect
       style="fill:#ffffff;fill-opacity:1;stroke:#ffffff;stroke-width:3.01113558;stroke-linecap:square;stroke-linejoin:round;stroke-miterlimit:36.79999924;stroke-dasharray:none;stroke-opacity:1;paint-order:fill markers stroke"
       id="rect829"
       width="5.5715904"
       height="5.5715904"
       x="13.903022"
       y="28.734245"
       inkscape:export-xdpi="213.08"
       inkscape:export-ydpi="213.08" />
    <g
       id="g5027"
       transform="translate(-33.122776,-11.002894)"
       inkscape:export-xdpi="213.08"
       inkscape:export-ydpi="213.08">
      <path
         inkscape:export-ydpi="442.18765"
         inkscape:export-xdpi="442.18765"
         sodipodi:nodetypes="cccccccccccccccccccccccccc"
         inkscape:connector-curvature="0"
         id="path22-9-6"
         style="fill:#12100e;fill-opacity:1;fill-rule:nonzero;stroke:#000000;stroke-width:0.16245757;stroke-miterlimit:4;stroke-dasharray:none;stroke-opacity:1"
         d="m 50.792946,41.520271 c 0.829309,-0.002 0.926954,-0.02751 0.943512,0.118873 0.03948,0.348213 -0.82362,0.25218 -1.032752,0.255832 -0.09459,0.466066 0.191131,-0.743975 0.08924,-0.374705 m 0.179753,-1.481412 c -0.64998,0.02301 -1.907317,-0.104014 -2.561288,0.416141 -0.399243,0.300578 -0.656858,0.514974 -1.032581,0.593091 -0.21949,0.04517 -0.797383,0.05154 -1.040648,0.004 0.5424,0.59411 1.373492,0.913114 2.167139,0.593941 0.313485,-0.15012 0.479313,-0.28105 0.729116,-0.268314 -0.126006,0.530089 0.0191,-0.06708 -0.111146,0.466322 -0.68301,0.054 -1.171493,0.628753 -1.756094,0.906576 -0.296418,0.140525 -0.912774,0.155851 -1.179219,0.143582 0.123732,0.09568 0.292172,0.25235 0.441698,0.338448 0.582732,0.33692 1.248845,0.349656 1.840238,0.05434 0.185696,-0.09264 0.400007,-0.124562 0.400007,-0.124562 -0.114797,0.553863 -0.245048,1.19238 -0.3601,1.747942 h 1.630428 c 0.148591,-0.795091 0.257699,-1.447873 0.323589,-1.687232 0.174403,-0.01002 0.313909,0.116241 0.409347,0.286314 0.22985,0.443141 0.385318,0.928398 0.557939,1.400918 h 1.757961 c -0.280795,-0.619413 -0.499012,-1.27695 -0.839837,-1.866051 0.861998,-0.344731 1.246467,-1.509771 0.751022,-2.303248 -0.255237,-0.409857 -0.652528,-0.572543 -1.03878,-0.644037 -0.261266,-0.04874 -0.470057,-0.05247 -1.088791,-0.05816" />
      <path
         inkscape:export-ydpi="442.18765"
         inkscape:export-xdpi="442.18765"
         inkscape:connector-curvature="0"
         id="path26-3-2"
         style="fill:#ed1c24;fill-opacity:1;fill-rule:nonzero;stroke:#ffffff;stroke-width:0.25869036;stroke-miterlimit:4;stroke-dasharray:none;stroke-opacity:1"
         d="m 51.549161,41.211566 c 0.237318,6.01e-4 0.549873,0.163035 0.507502,0.491966 -0.05518,0.430913 -0.555389,0.457491 -0.952594,0.46598 -0.264663,-0.0037 -0.499521,-0.0095 -0.735654,-0.0092 0.06582,-0.313315 0.129417,-0.629262 0.195881,-0.944785 0.328258,-0.0017 0.656689,-0.0067 0.98486,-0.004 m -0.600988,-0.859196 c -0.540191,0.0028 -1.096262,-0.01096 -1.621851,0.0754 -0.36341,0.06435 -0.46148,0.07304 -1.058563,0.505973 -0.332502,0.239957 -0.707549,0.41181 -1.095922,0.415292 0.530938,0.315777 1.11613,0.08975 1.491175,-0.105287 0.306693,-0.159723 0.499523,-0.204721 0.913794,-0.166073 -0.07321,0.354411 -0.145628,0.708822 -0.220584,1.063063 -0.555053,-0.03506 -1.041497,0.265766 -1.438872,0.62264 -0.248275,0.197923 -0.430659,0.30491 -0.865225,0.353392 0.419368,0.209303 0.895877,0.0776 1.294186,-0.120327 0.272049,-0.115048 0.56728,-0.178823 0.863867,-0.153522 -0.122444,0.598865 -0.247777,1.199089 -0.371309,1.799227 h 1.00974 c 0.118285,-0.568296 0.236297,-1.133028 0.355432,-1.69997 0.314333,-0.03703 0.630282,-0.02555 0.877706,0.335139 0.243767,0.432442 0.39848,0.898679 0.567364,1.364831 0.358826,-0.0042 0.732003,0.0062 1.082253,-0.0065 -0.254812,-0.606677 -0.476765,-1.231778 -0.877875,-1.763819 0.666876,-0.08305 1.205284,-0.702454 1.175992,-1.385888 -0.02291,-0.533061 -0.339383,-0.982571 -0.970937,-1.085821 -0.365789,-0.04425 -0.740239,-0.05314 -1.11036,-0.04791" />
      <g
         inkscape:export-ydpi="442.18765"
         inkscape:export-xdpi="442.18765"
         inkscape:export-filename="/home/gareth/Desktop/Rapid Logo - large.png"
         transform="matrix(0.08494021,0,0,-0.08494021,42.417459,49.427061)"
         id="g32-5-7">
        <g
           id="g34-5-0"
           clip-path="url(#clipPath38-9-3)">
          <g
             id="g40-3-9">
            <g
               id="g42-8-3" />
            <g
               id="g54-6-6">
              <g
                 clip-path="url(#clipPath46-5-5)"
                 id="g52-0-0"
                 style="opacity:0.21568298">
                <g
                   transform="translate(99.3828,92.8623)"
                   id="g50-3-6">
                  <path
                     sodipodi:nodetypes="ccccccccccccccccccccccccccc"
                     d="M 0,0 C 3.185,-0.826 6.972,0.639 9.933,-0.48 8.617,-4.136 3.736,-3.674 0.562,-3.674 -1.433,-4.323 -0.657,-2.557 -0.589,-1.354 -0.514,-0.94 -0.485,-0.075 0,0 m -0.691,17.146 c -9.09,-0.574 -19.49,1.75 -27.189,-4.37 -4.703,-3.557 -8.016,-6.577 -12.499,-7.135 -2.487,-0.875 -9.027,-0.073 -11.695,-0.382 6.222,-7.246 16.847,-10.749 25.745,-6.126 2.175,0.924 5.013,2.398 7.07,2.257 -0.417,-1.651 -0.13,-3.639 -1.211,-4.996 -8.045,-0.605 -13.676,-7.111 -20.428,-10.646 -3.61,-1.39 -10.764028,-1.81494 -13.916028,-1.81794 1.552733,-1.264169 3.374912,-2.742881 4.975028,-3.85906 6.681,-4.285 15.706,-4.492 22.584,-0.525 1.061,0.187 4.094,2.142 3.617,0.338 -1.354,-6.53 -2.703,-13.058 -4.06,-19.581 h 18.439 c 1.523,6.527 2.622,13.546 4.331,19.794 2.056,0.116 4.717,-1.266 5.069,-3.315 2.706,-5.226 4.536,-10.918 6.568,-16.479 h 20.697 c -3.302,7.305 -5.874,15.05 -9.889,21.95 10.149,4.06 14.804,17.861 8.859,27.147 -2.891,4.895 -8.568,7.661 -14.21,7.441 -4.274,0.376 -8.571,0.374 -12.857,0.305"
                     style="fill:#110f0d;fill-opacity:1;fill-rule:nonzero;stroke:none"
                     id="path48-3-2"
                     inkscape:connector-curvature="0" />
                </g>
              </g>
            </g>
          </g>
        </g>
      </g>
    </g>
  </g>
</svg>
